HIERARCHY
ROOT SimulationBone
{
	OFFSET 0.000000 0.000000 0.000000
	CHANNELS 6 Xposition Yposition Zposition Zrotation Yrotation Xrotation 
	JOINT Hips
	{
		OFFSET 0.000000 0.000000 0.000000
		CHANNELS 6 Xposition Yposition Zposition Zrotation Yrotation Xrotation 
		JOINT LeftUpLeg
		{
			OFFSET 0.103457 1.857824 10.548509
			CHANNELS 3 Zrotation Yrotation Xrotation
			JOINT LeftLeg
			{
				OFFSET 43.500000 -0.000023 0.000006
				CHANNELS 3 Zrotation Yrotation Xrotation
				JOINT LeftFoot
				{
					OFFSET 42.372192 0.000011 -0.000009
					CHANNELS 3 Zrotation Yrotation Xrotation
					JOINT LeftToe
					{
						OFFSET 17.300005 0.000002 -0.000010
						CHANNELS 3 Zrotation Yrotation Xrotation
						End Site
						{
							OFFSET 0.000000 0.000000 0.000000
						}
					}
				}
			}
		}
		JOINT RightUpLeg
		{
			OFFSET 0.103458 1.857836 -10.548506
			CHANNELS 3 Zrotation Yrotation Xrotation
			JOINT RightLeg
			{
				OFFSET 43.500038 -0.000023 0.000017
				CHANNELS 3 Zrotation Yrotation Xrotation
				JOINT RightFoot
				{
					OFFSET 42.372269 -0.000019 0.000007
					CHANNELS 3 Zrotation Yrotation Xrotation
					JOINT RightToe
					{
						OFFSET 17.299999 -0.000003 0.000008
						CHANNELS 3 Zrotation Yrotation Xrotation
						End Site
						{
							OFFSET 0.000000 0.000000 0.000000
						}
					}
				}
			}
		}
		JOINT Spine
		{
			OFFSET 6.901969 -2.603729 0.000003
			CHANNELS 3 Zrotation Yrotation Xrotation
			JOINT Spine1
			{
				OFFSET 12.588093 -0.000007 0.000001
				CHANNELS 3 Zrotation Yrotation Xrotation
				JOINT Spine2
				{
					OFFSET 12.343206 0.000014 -0.000007
					CHANNELS 3 Zrotation Yrotation Xrotation
					JOINT Neck
					{
						OFFSET 25.832899 -0.000010 0.000002
						CHANNELS 3 Zrotation Yrotation Xrotation
						JOINT Head
						{
							OFFSET 11.766599 0.000010 -0.000001
							CHANNELS 3 Zrotation Yrotation Xrotation
							End Site
							{
								OFFSET 0.000000 0.000000 0.000000
							}
						}
					}
					JOINT LeftShoulder
					{
						OFFSET 19.745895 -1.480371 6.000111
						CHANNELS 3 Zrotation Yrotation Xrotation
						JOINT LeftArm
						{
							OFFSET 11.284124 -0.000010 -0.000007
							CHANNELS 3 Zrotation Yrotation Xrotation
							JOINT LeftForeArm
							{
								OFFSET 33.000061 0.000006 0.000028
								CHANNELS 3 Zrotation Yrotation Xrotation
								JOINT LeftHand
								{
									OFFSET 25.200001 0.000019 0.000008
									CHANNELS 3 Zrotation Yrotation Xrotation
									End Site
									{
										OFFSET 0.000000 0.000000 0.000000
									}
								}
							}
						}
					}
					JOINT RightShoulder
					{
						OFFSET 19.746101 -1.480375 -6.000078
						CHANNELS 3 Zrotation Yrotation Xrotation
						JOINT RightArm
						{
							OFFSET 11.284128 -0.000010 -0.000011
							CHANNELS 3 Zrotation Yrotation Xrotation
							JOINT RightForeArm
							{
								OFFSET 33.000095 0.000022 0.000002
								CHANNELS 3 Zrotation Yrotation Xrotation
								JOINT RightHand
								{
									OFFSET 25.199768 0.000129 0.000422
									CHANNELS 3 Zrotation Yrotation Xrotation
									End Site
									{
										OFFSET 0.000000 0.000000 0.000000
									}
								}
							}
						}
					}
				}
			}
		}
	}
}
MOTION
Frames: 13
Frame Time: 0.033333
34.016379 0.000000 481.523212 0.000000 -26.061230 0.000000 -2.644887 90.428017 -0.080505 87.326914 3.463974 -177.297228 146.326612 -10.174393 -176.820251 -39.218284 3.010059 -2.055955 69.791706 -0.767064 -6.353656 21.454555 0.003099 -0.000001 166.855101 -8.891399 176.435698 -28.144063 -0.916548 2.185847 89.008198 -1.677700 -1.069269 21.454558 -0.003111 -0.000017 7.239715 1.303841 0.101666 4.470588 2.602768 0.253238 4.152156 2.604382 0.237510 3.595424 2.538603 -23.447729 -28.951526 12.154894 -29.968654 -171.109312 -83.417182 -10.565028 -19.710377 69.006412 35.476518 -37.668094 -20.286133 1.741722 12.967911 -13.848593 -15.136859 176.828270 74.009505 -1.877506 -17.491954 -57.334582 -14.512518 -49.249660 13.455760 -1.653571 0.553584 9.139320 -14.367755 
37.058378 0.000000 481.167833 0.000000 -30.698608 0.000000 -2.813144 90.285454 0.392566 87.122558 3.741411 -176.977479 149.351020 -11.531796 -171.971309 -26.317571 1.356637 3.471317 68.516981 -4.715651 -6.108106 21.454555 0.003097 0.000000 168.206823 -8.277097 174.478111 -27.947954 -0.529513 0.796642 90.659990 -0.729404 -1.118927 21.454558 -0.003102 -0.000017 7.174133 1.384034 0.089619 4.339484 2.763710 0.230652 4.020969 2.765191 0.213946 2.330028 3.561405 -22.886719 -28.765536 12.192672 -29.081678 -171.617587 -83.567877 -10.052050 -17.310995 68.996843 38.162842 -34.022313 -17.218499 1.456233 16.568162 -12.748596 -26.739106 176.620045 74.075205 -2.089396 -17.921703 -55.955727 -13.556246 -45.157826 13.401069 -1.524664 2.300800 9.396334 -9.929633 
39.866698 0.000000 480.910420 0.000000 -35.346783 0.000000 -2.910571 90.064507 0.817625 86.757821 3.852997 -177.084253 152.177926 -13.277296 -165.160449 -16.736667 -1.547033 3.920780 63.944777 -6.273931 -8.535579 21.454553 0.003093 0.000000 168.951628 -7.344188 173.159721 -28.138730 -0.409435 -1.129300 92.445641 0.584512 -1.193961 21.454558 -0.003107 -0.000017 7.088904 1.413345 0.054319 4.168178 2.823779 0.159025 3.849656 2.824824 0.141961 1.906566 5.044289 -22.379513 -28.928856 12.017551 -28.164837 -171.947335 -83.738222 -9.719909 -12.089126 68.749938 43.728534 -32.150981 -15.249961 1.289008 17.473943 -11.874366 -28.314080 177.236620 73.832904 -1.463106 -17.569453 -54.065602 -12.683298 -42.905479 13.014394 -1.434557 4.371362 8.853077 -7.062976 
42.446198 0.000000 480.747904 0.000000 -39.959664 0.000000 -3.233143 89.877113 0.924680 86.381768 3.146194 -177.596958 153.338211 -13.336108 -168.149490 -18.272394 -0.915381 3.067613 66.333527 -6.783217 -12.023581 21.454545 0.003082 -0.000003 168.288853 -5.503798 172.510730 -30.211115 -0.836085 -3.737425 93.979462 2.428329 -0.819529 21.454560 -0.003097 -0.000017 7.044288 1.286486 -0.047441 4.076177 2.573779 -0.050033 3.757742 2.573570 -0.065588 2.166419 6.327009 -21.680195 -28.512925 11.640597 -26.959764 -169.617393 -83.790602 -12.073479 -6.159928 68.279905 50.775640 -31.227867 -14.195015 1.202152 16.230691 -12.050103 -24.148315 178.109026 73.877792 -0.567210 -17.495613 -52.523649 -10.643410 -41.749436 12.561783 -1.372897 5.424190 8.398825 -6.662821 
44.801737 0.000000 480.677219 0.000000 -44.494312 0.000000 -3.556789 89.480568 0.722544 86.168236 2.126795 -178.568765 154.289711 -13.850204 178.019728 -22.149050 0.341229 6.781750 71.454523 -7.599677 -8.247966 21.454557 0.003091 0.000000 165.759771 -3.674696 171.190045 -35.569549 -1.157269 -5.708252 94.859306 3.850281 -0.279424 21.454557 -0.003107 -0.000017 7.082197 1.091399 -0.143411 4.149897 2.187136 -0.248040 3.831568 2.185735 -0.261247 2.556998 7.223925 -20.821227 -27.636571 10.987835 -25.491939 -165.503325 -83.414737 -16.230695 -1.164201 67.379843 56.610797 -30.890432 -13.192138 1.130742 14.853553 -11.874991 -21.118146 178.929031 73.960273 0.275795 -17.304066 -50.950281 -8.368904 -41.570372 12.040752 -1.333774 5.346514 9.115110 -7.021735 
46.938175 0.000000 480.695297 0.000000 -48.913449 0.000000 -3.889083 89.269852 0.348240 85.621182 -0.229858 -179.315339 155.063900 -11.346896 173.735642 -24.981658 1.650632 5.310546 74.266894 -6.201064 -7.858149 21.454553 0.003098 -0.000000 161.022147 -0.734106 170.412810 -43.588826 -1.575575 -7.675148 93.312118 5.216902 -0.351196 21.454557 -0.003114 -0.000017 7.093845 0.525307 -0.355703 4.171806 1.062901 -0.692466 3.853660 1.058846 -0.698878 2.777338 7.748319 -19.871804 -26.616460 11.192919 -24.371117 -161.996009 -83.246714 -19.776985 1.928391 66.453048 59.741513 -30.215155 -12.170594 1.051516 14.457511 -10.450674 -21.785682 178.601141 73.563309 -0.069303 -16.320122 -49.958947 -6.990171 -42.422452 12.423732 -1.382259 5.041757 11.064317 -5.533920 
48.860372 0.000000 480.799070 0.000000 -53.187138 0.000000 -4.039190 89.271172 -0.138378 85.158408 -2.287814 179.818897 156.756557 -9.514598 172.511877 -26.019139 0.634103 2.674923 76.403930 -4.195890 -8.079177 21.454555 0.003083 -0.000001 155.751058 2.001797 170.751820 -51.410506 -2.178954 -9.660516 88.475777 6.658443 -0.332579 21.454560 -0.003112 -0.000016 7.066825 -0.048343 -0.502162 4.121161 -0.079023 -1.005702 3.803105 -0.084957 -1.005193 3.615250 8.360688 -18.856032 -25.440971 10.858613 -22.975213 -161.855785 -84.010309 -19.910790 4.061473 65.805519 61.944550 -29.052660 -11.359433 0.977112 13.677136 -9.398936 -21.068265 177.102516 73.686103 -1.604265 -14.512303 -50.640764 -5.755961 -43.543603 12.801374 -1.438503 4.828179 13.896585 -1.936870 
50.573186 0.000000 480.985471 0.000000 -57.293543 0.000000 -4.087444 89.424278 -0.610556 85.038070 -3.446962 178.900943 159.052839 -8.820104 167.941907 -26.197884 0.200162 2.250227 78.164234 -3.600658 -7.546928 21.454548 0.003095 0.000001 151.429966 4.111204 172.148033 -56.924350 -3.072984 -11.155558 82.674215 8.766922 3.725163 21.454558 -0.003103 -0.000020 7.092067 -0.410603 -0.631040 4.175857 -0.798482 -1.276367 3.857801 -0.806030 -1.271515 4.113622 8.962794 -17.741462 -23.856674 9.627456 -21.020368 -164.770637 -84.695001 -16.963820 5.357815 64.380817 64.076484 -28.723507 -11.015143 0.948763 12.639242 -9.323121 -15.731667 176.859662 74.162324 -1.841596 -13.307782 -51.817940 -4.522756 -44.736899 12.753542 -1.469612 5.398005 16.057513 2.774010 
52.081478 0.000000 481.251433 0.000000 -61.218818 0.000000 -4.159460 89.673279 -1.031666 84.918036 -3.748009 178.300630 160.835683 -7.673011 166.788794 -26.256309 0.391674 -0.063461 79.556951 -1.980772 -7.910067 21.454553 0.003095 0.000002 148.165941 5.503797 174.116617 -60.361066 -3.788063 -11.769139 77.685772 10.930506 8.816832 21.454553 -0.003118 -0.000014 7.098067 -0.491247 -0.800564 4.190184 -0.953562 -1.618248 3.872165 -0.963172 -1.612468 4.522542 8.415573 -16.625355 -22.883893 9.195814 -19.704503 -167.175423 -84.434860 -14.538886 4.589723 62.012066 66.099709 -28.591189 -11.000787 0.945455 11.532131 -9.363666 -11.749815 176.712799 75.012908 -1.970787 -11.881578 -53.015594 -4.254946 -46.281816 12.866199 -1.522702 5.954279 16.490536 5.896606 
53.390107 0.000000 481.593887 0.000000 -64.956355 0.000000 -4.234807 89.908089 -1.352201 84.831523 -3.653506 177.903930 162.365290 -6.562101 166.277609 -26.203227 0.961282 -2.538941 80.606484 -0.349889 -8.529542 21.454553 0.003096 0.000000 145.885765 6.462302 175.903968 -62.642691 -3.856453 -11.289534 75.239895 12.132141 13.024151 21.454562 -0.003105 -0.000017 7.103579 -0.474852 -0.898451 4.201693 -0.917140 -1.813427 3.883725 -0.927943 -1.807855 4.575535 8.322646 -15.795477 -22.403632 8.355452 -18.459722 -168.352757 -84.308180 -13.350978 2.655412 60.173113 66.184192 -27.719312 -10.952708 0.926939 11.077778 -8.986247 -11.232371 177.339947 75.407092 -1.319401 -9.993757 -53.716808 -3.896499 -47.505742 12.442118 -1.531740 5.290397 15.787837 5.447350 
54.503933 0.000000 482.009766 0.000000 -68.505634 0.000000 -4.288401 90.028069 -1.551284 84.912132 -3.648180 177.669570 163.808522 -5.633398 165.957860 -26.353078 1.177809 -4.742770 81.443210 1.077759 -9.180576 21.454553 0.003093 0.000000 144.542963 7.413703 177.156638 -63.960330 -3.195093 -10.240352 76.259089 11.828907 15.073440 21.454557 -0.003105 -0.000017 7.111627 -0.489968 -0.930931 4.218311 -0.946058 -1.878992 3.900354 -0.957248 -1.873251 4.692433 8.500678 -15.099024 -22.273097 7.244655 -17.243233 -171.383462 -84.500887 -10.293253 1.143160 58.991135 62.937994 -26.540363 -10.494774 0.877289 12.002925 -8.329843 -12.172878 177.514390 75.552001 -1.137412 -7.392620 -54.155798 -4.916054 -47.925129 12.001779 -1.515401 4.494557 15.407539 4.243908 
55.427814 0.000000 482.496003 0.000000 -71.870928 0.000000 -4.336376 90.116920 -1.708458 85.002148 -3.686036 177.486776 165.086205 -4.984494 164.520597 -26.652544 1.497726 -6.020919 82.106394 1.849106 -9.854850 21.454553 0.003095 -0.000000 143.715130 8.376798 178.303331 -63.910271 -2.282001 -8.764728 78.025875 10.786051 16.233990 21.454562 -0.003108 -0.000018 7.081730 -0.518099 -0.936500 4.159055 -1.002611 -1.890885 3.841084 -1.013874 -1.884796 4.851050 8.613073 -14.433470 -21.982824 6.387643 -16.168320 -173.145651 -84.839842 -8.518093 -0.050401 58.055775 58.290911 -25.730002 -10.121712 0.839957 13.969334 -8.643645 -14.562112 176.847340 75.607831 -1.818405 -4.471696 -54.634106 -7.734664 -47.348060 12.375897 -1.522511 4.144566 14.695569 3.402474 
56.166611 0.000000 483.049530 0.000000 -75.060034 0.000000 -4.359008 90.205078 -1.840757 85.010519 -3.424267 177.403557 166.273060 -5.133504 161.035835 -27.028729 1.892658 -5.860264 82.913743 1.778491 -9.926931 21.454551 0.003089 -0.000001 143.315223 9.207302 -179.996003 -62.350386 -1.380313 -6.428944 78.842431 8.807463 15.780935 21.454557 -0.003119 -0.000020 7.019991 -0.458666 -0.937390 4.034585 -0.884796 -1.890063 3.716611 -0.896044 -1.884688 4.714540 8.621741 -13.743124 -21.394488 5.652901 -15.086259 -174.096358 -85.309274 -7.563963 -0.833330 57.233683 54.831099 -25.680369 -10.666663 0.874558 16.266249 -9.359401 -18.910326 175.455552 75.835420 -3.235689 -1.925288 -55.330898 -9.699623 -45.516794 12.003987 -1.442877 4.051243 14.021732 2.277075 
